<svg xmlns="http://www.w3.org/2000/svg" viewBox="0 0 870.25 239"><defs><style>.cls-1,.cls-2,.cls-5{fill:#f2f2f2;}.cls-2,.cls-5{font-size:60px;font-family:Roboto-Regular, Roboto;}.cls-2{letter-spacing:0.21em;}.cls-3{letter-spacing:0.2em;}.cls-4{letter-spacing:0.23em;}.cls-5{letter-spacing:0.43em;}.cls-6{letter-spacing:0.02em;}</style></defs><g id="Layer_2" data-name="Layer 2"><g id="modern_w_bkgrd_w_ex_copy" data-name="modern w/ bkgrd w ex copy"><path class="cls-1" d="M266.93,0V92.8H167.24V0H89.74Q70.6,0,55.59,4.36A70.25,70.25,0,0,0,30.24,17.23,54.47,54.47,0,0,0,14.55,38.28Q9.2,50.85,9.19,67.38q0,22.37,10.79,37.44T50.08,128L0,221v2H41.5l44.72-85.91H128.5V223h38.74V123.89h99.69V223h38.59V0ZM89.59,106a55,55,0,0,1-18.23-2.75,36.35,36.35,0,0,1-13-7.66,31.22,31.22,0,0,1-7.81-11.64,40.77,40.77,0,0,1-2.61-14.85,46.76,46.76,0,0,1,2.45-15.55,31,31,0,0,1,7.51-11.94,33.44,33.44,0,0,1,12.94-7.66,59,59,0,0,1,18.91-2.68L128.5,31v75Z"/><text class="cls-2" transform="translate(344.73 64)">L<tspan class="cls-3" x="44.84" y="0">ANDSCAPE</tspan><tspan class="cls-4" x="447.84" y="0"> </tspan><tspan class="cls-3" x="476.23" y="0">&amp;</tspan></text><text class="cls-5" transform="translate(344.73 193.28)">EXTERIOR<tspan class="cls-6" x="477.93" y="0">S</tspan></text></g></g></svg>